<svg width="15" height="15" viewBox="0 0 15 15" fill="none" xmlns="http://www.w3.org/2000/svg">
<path d="M3.11867 2.49392C2.99434 2.49396 2.87284 2.53107 2.76971 2.60051C2.66658 2.66996 2.5865 2.76859 2.53972 2.88378C2.49293 2.99898 2.48156 3.12551 2.50707 3.2472C2.53257 3.36889 2.59378 3.4802 2.68288 3.56692L6.61599 7.50003L2.68288 11.4331C2.6229 11.4907 2.57501 11.5597 2.54202 11.636C2.50903 11.7124 2.4916 11.7945 2.49076 11.8777C2.48991 11.9608 2.50566 12.0433 2.53709 12.1203C2.56852 12.1973 2.615 12.2672 2.6738 12.326C2.7326 12.3848 2.80254 12.4313 2.87952 12.4627C2.95651 12.4941 3.03899 12.5099 3.12214 12.509C3.20529 12.5082 3.28744 12.4908 3.36377 12.4578C3.4401 12.4248 3.50908 12.3769 3.56667 12.3169L7.49978 8.38381L11.4329 12.3169C11.4905 12.3769 11.5595 12.4248 11.6358 12.4578C11.7121 12.4908 11.7943 12.5082 11.8774 12.5091C11.9606 12.5099 12.043 12.4941 12.12 12.4627C12.197 12.4313 12.267 12.3848 12.3258 12.326C12.3846 12.2672 12.431 12.1973 12.4625 12.1203C12.4939 12.0433 12.5097 11.9608 12.5088 11.8777C12.508 11.7945 12.4905 11.7124 12.4575 11.636C12.4245 11.5597 12.3767 11.4907 12.3167 11.4331L8.38357 7.50003L12.3167 3.56692C12.407 3.47913 12.4687 3.36611 12.4936 3.24266C12.5186 3.11921 12.5057 2.99109 12.4566 2.8751C12.4075 2.75911 12.3246 2.66065 12.2186 2.59264C12.1125 2.52462 11.9885 2.49021 11.8626 2.49392C11.7002 2.49876 11.5461 2.56662 11.4329 2.68313L7.49978 6.61624L3.56667 2.68313C3.50843 2.62326 3.43878 2.57567 3.36183 2.54317C3.28488 2.51068 3.2022 2.49393 3.11867 2.49392Z" fill="#8299BC"/>
</svg>
