<svg
  width="20"
  height="20"
  viewBox="0 0 20 20"
  fill="none"
  xmlns="http://www.w3.org/2000/svg"
>
  <g clip-path="url(#clip0_71_809)">
    <path
      d="M1.2 1.59998C0.542184 1.59998 -3.46545e-06 2.14216 -3.46545e-06 2.79998V17.5625C-0.0250035 17.6547 -0.0156285 17.7515 0.0249965 17.8375C0.137497 18.3828 0.624997 18.8 1.2 18.8H16.8C17.3969 18.8 17.8875 18.35 17.975 17.775C17.9781 17.75 17.9859 17.725 17.9875 17.7C17.9875 17.6922 17.9875 17.6828 17.9875 17.675L18 17.6125C18 17.6078 18 17.6047 18 17.6L19.9875 6.87498L20 6.83748V6.79998C20 6.14216 19.4578 5.59998 18.8 5.59998V4.39998C18.8 3.74216 18.2578 3.19998 17.6 3.19998H7.2125C7.21406 3.20154 7.20937 3.19998 7.2 3.19998C7.1875 3.1906 7.15156 3.16091 7.0875 3.08748C6.98906 2.97498 6.875 2.78748 6.75 2.58748C6.625 2.38748 6.49062 2.17498 6.325 1.98748C6.15937 1.79998 5.92812 1.59998 5.6 1.59998H1.2ZM1.2 2.39998H5.6C5.575 2.39998 5.62656 2.39998 5.725 2.51248C5.82343 2.62498 5.9375 2.81248 6.0625 3.01248C6.1875 3.21248 6.325 3.42498 6.4875 3.61248C6.65 3.79998 6.87187 3.99998 7.2 3.99998H17.6C17.825 3.99998 18 4.17498 18 4.39998V5.59998H3.2C2.57031 5.59998 2.06875 6.10623 2.025 6.72498H2.0125L2 6.79998L0.799996 13.275V2.79998C0.799996 2.57498 0.974997 2.39998 1.2 2.39998ZM3.2 6.39998H18.8C19.025 6.39998 19.2 6.57498 19.2 6.79998L17.2375 17.4125L17.225 17.4375C17.2203 17.4531 17.2156 17.4703 17.2125 17.4875C17.2078 17.5031 17.2031 17.5203 17.2 17.5375C17.2 17.5453 17.2 17.5547 17.2 17.5625C17.2 17.5672 17.2 17.5703 17.2 17.575C17.1937 17.5953 17.1906 17.6156 17.1875 17.6375C17.1859 17.65 17.1891 17.6625 17.1875 17.675C17.1859 17.6922 17.1859 17.7078 17.1875 17.725C17.1375 17.8875 16.9828 18 16.8 18H1.2C0.974997 18 0.799996 17.825 0.799996 17.6L2.7875 6.87498L2.8 6.83748V6.79998C2.8 6.57498 2.975 6.39998 3.2 6.39998Z"
      fill="#8299BC"
    />
  </g>
  <defs>
    <clipPath id="clip0_71_809">
      <rect width="20" height="20" fill="white" />
    </clipPath>
  </defs>
</svg>
