<svg width="30" height="30" viewBox="0 0 30 30" fill="none" xmlns="http://www.w3.org/2000/svg">
<path d="M4.28614 3C3.10226 3 2.14336 3.95889 2.14336 5.14277V8.35693V10.4997H22.4997H27.8566V7.28555C27.8566 6.10166 26.8977 5.14277 25.7139 5.14277H11.9993L11.338 4.04C10.9513 3.39502 10.254 3 9.50078 3H4.28614ZM1.60976 12.6425C0.528735 12.6425 -0.245392 13.6897 0.0717382 14.7225L3.25242 25.0576C3.52991 25.9565 4.36035 26.5705 5.30102 26.5705H15H24.699C25.6397 26.5705 26.4701 25.9565 26.7476 25.0576L29.9283 14.7225C30.2454 13.6897 29.4713 12.6425 28.3902 12.6425H15H1.60976Z" fill="black"/>
<path d="M4.28614 3C3.10226 3 2.14336 3.95889 2.14336 5.14277V8.35693V10.4997H22.4997H27.8566V7.28555C27.8566 6.10166 26.8977 5.14277 25.7139 5.14277H11.9993L11.338 4.04C10.9513 3.39502 10.254 3 9.50078 3H4.28614ZM1.60976 12.6425C0.528735 12.6425 -0.245392 13.6897 0.0717382 14.7225L3.25242 25.0576C3.52991 25.9565 4.36035 26.5705 5.30102 26.5705H15H24.699C25.6397 26.5705 26.4701 25.9565 26.7476 25.0576L29.9283 14.7225C30.2454 13.6897 29.4713 12.6425 28.3902 12.6425H15H1.60976Z" fill="#8299BC"/>
</svg>
